<svg width="800" height="600" viewBox="0 0 800 600" xmlns="http://www.w3.org/2000/svg">
  <defs>
    <linearGradient id="grad3" x1="0%" y1="0%" x2="100%" y2="100%">
      <stop offset="0%" style="stop-color:#033379;stop-opacity:0.2" />
      <stop offset="50%" style="stop-color:#BE0000;stop-opacity:0.15" />
      <stop offset="100%" style="stop-color:#02244f;stop-opacity:0.2" />
    </linearGradient>
  </defs>
  <rect width="800" height="600" fill="url(#grad3)"/>
  <g opacity="0.15">
    <!-- Waves pattern -->
    <path d="M0,300 Q100,250 200,300 T400,300 T600,300 T800,300 L800,600 L0,600 Z" fill="#033379"/>
    <path d="M0,350 Q100,300 200,350 T400,350 T600,350 T800,350 L800,600 L0,600 Z" fill="#BE0000"/>
    <path d="M0,400 Q100,350 200,400 T400,400 T600,400 T800,400 L800,600 L0,600 Z" fill="#033379"/>
    <!-- Seawall structure -->
    <rect x="100" y="200" width="600" height="100" fill="#ffffff"/>
    <line x1="150" y1="200" x2="150" y2="300" stroke="#033379" stroke-width="3"/>
    <line x1="250" y1="200" x2="250" y2="300" stroke="#033379" stroke-width="3"/>
    <line x1="350" y1="200" x2="350" y2="300" stroke="#033379" stroke-width="3"/>
    <line x1="450" y1="200" x2="450" y2="300" stroke="#033379" stroke-width="3"/>
    <line x1="550" y1="200" x2="550" y2="300" stroke="#033379" stroke-width="3"/>
    <line x1="650" y1="200" x2="650" y2="300" stroke="#033379" stroke-width="3"/>
  </g>
</svg>
