<svg xmlns="http://www.w3.org/2000/svg" viewBox="0 0 1600 392" fill="none" stroke="#fff" stroke-width="2.0" stroke-linecap="round" stroke-linejoin="round" aria-hidden="true" focusable="false">
<path pathLength="1" style="--i:0" d="M363 390.5h40h22.5M365 346.5v44M372.5 349.5v41M711.5 390.5h39.5M713 346.5v44M720.5 349.5v41M1059.5 390.5h40h22.5M1061.5 346.5v44M1069 349.5v41M1408 390.5h40h22M1410 346.5v44M1417.5 349.5v41"/>
<path pathLength="1" style="--i:1" d="M34.5 342v2h-1.5M34.5 344l8 -12.5l1 -1.5l8 -12.5M35.5 342.5h20l1.5 -1M37 340h20l51.5 -81.5h-19.5M55.5 342.5l-6 9.5l1.5 1M51.5 353l6.5 -10.5h18.5l-7.5 11.5l-1 1l-1 1l-1.5 0.5M57.5 341l2 -1h18.5l52 -81.5l1.5 -1M59.5 340l52 -81.5h18.5M69.5 354l1.5 1l171.5 -269l-2 -1l-2.5 3.5h-18l-2 1M76.5 342.5l2 -1M219 123l141.5 222l-141.5 -222.5M319.5 258.5l52 81.5M320 258.5l52 81.5M377 348.5h-4.5v-11l4.5 -7.5l12.5 -19.5l8.5 -14l9 -13.5l8.5 -13.5l1.5 -2.5l16 -25l1.5 -2l16 -25.5l8.5 -13.5l1.5 -2.5l9 -13.5l8.5 -13.5l8.5 -14l16 -25l1.5 -2l9 -14l8.5 -13.5l8.5 -13.5l4.5 -7h2M380 348.5l1 -1.5l1 -2l1 -1l8 -12.5l0.5 -1.5h-1.5M385.5 340h19.5l52 -81.5l2 -1l1 1l-52 81.5h18l1 1M566.5 89.5l1.5 -1h18.5l2 -3.5l2 1l-165.5 260.5l-2 -1l1.5 -3h-18l-3 4M406 341l2 -1M459.5 258.5h18.5l-52 81.5M567 123l141.5 222M567.5 122.5l141.5 222.5h2.5M668.5 258.5l51.5 81.5l-52 -81.5M720.5 348.5v-11l5 -7.5l12.5 -19.5l1 -2.5l9 -13.5l8.5 -13.5l9 -14l8.5 -13.5l8.5 -13.5l9 -14l8.5 -13.5l9 -14l8.5 -13.5l9 -13.5l16 -25.5l1 -2l9 -13.5l16 -25.5l8.5 -13.5l1.5 -2l4 -7M728.5 348.5l0.5 -1.5l1.5 -2l1 -1M729.5 344h2l6.5 -10.5l1 -2l1 -1.5h-1.5M733.5 340h20l52 -81.5l1.5 -1M754.5 341l1.5 -1h18.5l52 -81.5h-18.5l-52 81.5M894 88.5h19.5l2.5 -3.5l2 1l-1.5 2.5h18.5l2 -3.5l2 1l-166 260.5l-1.5 -1M915.5 122.5l141.5 222.5l-141.5 -222M1016 258.5l52 81.5M1016.5 258.5l52 81.5M1231 82.5l-4 7l-1.5 2l-16 25l-1.5 2.5l-16 25l-8.5 13.5l-9 14l-8.5 13.5l-1.5 2l-16 25.5l-1.5 2l-8.5 14l-16 25l-9 13.5l-8.5 14l-1.5 2l-16 25l-1.5 2.5l-12.5 19.5l-4.5 7.5v11h4.5M1079.5 344l6.5 -10.5l1.5 -2l1 -1.5h-2h1.5v-1.5M1082 340h19.5l52 -81.5h-19.5M1100.5 346.5l2.5 -4h18.5l1.5 -1M1104.5 340h18.5l51.5 -81.5h-18l-52 81.5l-2 1M1287.5 86l-166 260.5l-2 -1l2 -3M1264 123l141 221.5M1264 122.5l141 221.5M1415.5 345v-3h-6.5v3h-4v-81.5l4.5 -7M1405 263.5l8.5 2.5l4 1v31v2.5v44.5M1419.5 345.5v-74.5h2M1419.5 264h3.5l1.5 1.5v80M1424.5 340h14.5l1 1M1424.5 316.5l14.5 23M1424.5 296h14.5v44M1424.5 342.5h14.5M1439 347.5v-2h2.5v-3l-1 -1M1439 345.5v-3l1 -1M1440.5 294.5l1 -1h18.5v-24h2.5v76h-2M1440.5 341l1 -1h18.5v-44h-18.5l-1 -1M1441.5 342.5h18.5v3v2M1441.5 310l18.5 29.5M1441.5 314.5l16 25.5M1441.5 296v44M1441.5 345.5v2M1460 340l1.5 1M1461 345.5h1.5v2"/>
<path pathLength="1" style="--i:2" d="M26.5 333.5l7.5 -11.5l13 -21M42 328.5h1.5v1.5h-1.5M52 314.5v2l6.5 -10.5l1.5 -2l1 -1l7.5 -12.5l1 -1.5h-1.5M381 323.5l-41 -65h-30v-2.5h28.5M340.5 257.5l2 1l40 63M390 328.5h1.5v1.5l8 -12.5l1 -1v-2M410.5 332l-10 -15.5l8 -12.5M688.5 257l-2 -1h-28.5v2.5h30l41.5 65M731 321.5l-40 -63h18l31 48.5M738.5 328.5h1.5v1.5l15 -24l2.5 -3l8 -12.5l0.5 -1.5h-1.5M1036.5 257l-1.5 -1h-28.5v2.5h30l41 65M1079 321.5l-40 -63h18.5l31 48.5M1086.5 328.5h2v1.5l7.5 -12.5l1 -1l6.5 -10.5l1.5 -2M1097 314.5v2l10 15.5M1364.5 258.5l40.5 63.5M1365 258.5l40 63"/>
<path pathLength="1" style="--i:3" d="M69.5 287.5v1.5l6.5 -10l1.5 -2.5M248.5 82l2 -1l142.5 223.5M342.5 258.5h18.5l30.5 48.5M409 303l8 -12.5l1 -1.5l7.5 -12.5l1 -1l6.5 -10.5l1.5 -2l0.5 -1.5l8 -12l1 -1.5h-1.5M416.5 289h1.5v-1.5M599 81l142.5 223.5M766 287.5v1.5l8 -12.5l1 -1v-2M946 81.5l1.5 -0.5l142 223.5M1105.5 303l8 -12.5l1 -1.5v-1.5M1113 289h1.5l8 -12.5M1405 290.5l-20.5 -32h-29.5v-2.5h28l-52 -81.5h-29.5v-2.5h28l2 1.5M1436 238l-8 12.5l-1 1l-5 8.5l-4.5 7l-12.5 -3.5v-5h-17.5l17.5 27.5M1424.5 293.5h14.5M1441.5 293.5v-24h-2.5v24l1 1M1439 296l1 -1M1460 293.5l1.5 1M1460 296l1.5 -1"/>
<path pathLength="1" style="--i:4" d="M78 273.5v2l8 -12.5l1 -1.5l8 -12l0.5 -1.5h-1.5M90.5 256h19.5M144 172h19.5l0.5 1.5l-2 1l-52 81.5l1 1l2 -1h18.5l52 -81.5l1.5 -1M113 256l52 -81.5h18.5M286.5 173.5l-1.5 -1.5h-28.5v2.5h30l52 81.5l1.5 1M266 174.5l52 81.5M266.5 174.5l52 81.5M308 173.5l-2 -1.5h-18.5l-0.5 1.5l2 1h18.5l52 81.5l2 1M289 174.5l52 81.5h18.5M426.5 273.5v2M437 258.5h20M438.5 256h20l52 -81.5l2 -1l-0.5 -1.5M533 172h-18.5l52 -81.5h18.5l-52 81.5l0.5 1.5l-2 1h-18.5l-51.5 81.5l-2 1M461 256h18.5l52 -81.5M478 258.5l2 -1M635 173.5l-2 -1.5h-28v2.5h29.5l52 81.5M614.5 174.5l52 81.5M615 174.5l52 81.5M656 173.5l-1.5 -1.5h-18.5l-0.5 1.5l2 1l52 81.5h18l-52 -81.5M689 257.5l2 1M707.5 256l2 1M709 258.5l1 -1M775 275.5l7.5 -12.5l1 -1.5l8 -12l0.5 -1.5M785.5 258.5h20M787 256h20l51.5 -81.5h-19.5M809.5 256h18.5l52 -81.5h-18.5l-52 81.5l-2 1M826.5 258.5l2 -1M1035 256l-52 -81.5h-30v-2.5h28.5l2 1.5l0.5 -1.5h18.5l2 1.5M1014.5 256l-51.5 -81.5l52 81.5M985.5 174.5l52 81.5h18.5l-52 -81.5h-18.5l-1.5 -1M1037 257.5l2 1M1056 256l2 1M1123 273.5v2l8 -12.5l1 -1.5l6.5 -10l1 -2l1 -1.5h-1.5M1135.5 256h19.5l52 -81.5l2 -1M1153.5 258.5l2 -1M1156 257l2 -1M1209.5 173.5l2 -1.5l51.5 -81.5h18.5l-52 81.5l0.5 1.5l-2 1l-52 81.5h-18l52 -81.5l-1 -1l-0.5 -1.5l52 -81.5h-20M1176 256l1 1M1282.5 93.5l50 78.5l-0.5 1.5l2 1h18.5l52 81.5h-18.5l-52 -81.5M1294 82l1.5 -1l109.5 171.5v3v3l0.5 -2.5M1311 174.5l52 81.5M1311.5 174.5l52 81.5M1383 256l2 1M1385.5 257.5l2 1M1412 252.5l-1.5 2l11.5 -18l12.5 -19.5l8.5 -13.5l9 -14l8.5 -13.5l8.5 -13.5l9 -14l8.5 -13.5l9 -13.5l8.5 -14l8.5 -13.5l9 -13.5l8.5 -14l1.5 -2l16 -25.5l9 -13.5l8.5 -13.5M1450.5 248l-2 1l-8.5 13.5l2 1.5l9 -15h18.5l2 -1M1469.5 249l-8.5 13.5l2 1.5"/>
<path pathLength="1" style="--i:5" d="M78 252l15.5 -23.5l1.5 -2.5l16 -25l1.5 -2.5l16 -25l8.5 -13.5l1.5 -2.5l8.5 -13.5l16 -25l9 -14l1 -2l9 -13.5l4 -7M95.5 248l8 -12.5l1 -1l6.5 -10.5l1.5 -2l0.5 -1.5M103 232.5h1.5v2h-1.5M444 248l6.5 -10l1.5 -2.5M452.5 232.5v2l6.5 -10.5l1.5 -2l1 -1.5l8 -12.5M799.5 234.5h1.5l-1 1l-8 12.5h-1.5M799.5 232.5h1.5v2l8 -12.5l0.5 -1.5l8 -12.5l1 -1l8 -12.5M1140.5 248l6.5 -10l2 -3.5M1149 232.5v2l8 -12.5l1 -1.5l6.5 -10l1.5 -2.5M1426.5 249h1.5v1.5h-1.5M1428.5 249h20M1430 247h20l52 -82l1.5 -1M1436.5 235.5v1.5l8 -12.5l0.5 -1.5l8 -12.5l1 -1h-1.5M1452.5 247h18.5l52 -82h-18.5l-52 82l-1.5 1"/>
<path pathLength="1" style="--i:6" d="M113 216v1.5v1.5v1.5l8 -12.5l1 -1l7.5 -12.5l1 -1v-2M122 205v2M486 179.5h1.5l-1 1.5l-7.5 12.5l-1 1l-8 12.5M809.5 216v1.5v1.5v1.5M1166.5 207l8 -12.5l1 -1h-1.5M1452.5 208h1.5v1.5l8 -12.5"/>
<path pathLength="1" style="--i:7" d="M129 193.5h1.5l6.5 -10.5l8.5 -13.5l2.5 -3.5l8 -12.5M142.5 174.5h19.5M163.5 172l52 -81.5l2 -1M164.5 173.5l2 -1.5h18.5l0.5 1.5M185 172l51.5 -81.5h-18l-52 81.5M226 111.5l38.5 60.5M226.5 111.5l38.5 60.5M236 96l49 76M237.5 93.5l50 78.5M239.5 90.5h14.5l52 81.5M479 191.5v2h-2M486 176.5h1.5v1.5h-1.5M487.5 178v1.5l8 -12.5M490.5 174.5h20M492 172h20l52 -81.5l1.5 -1M513 173.5l1.5 -1.5M613 172l-38.5 -60.5l39 60.5M584.5 96l48.5 76M586 93.5l50 78.5M588 90.5h14.5l52 81.5M637.5 174.5h18.5M825.5 193h1.5v-1.5v2h-1.5M827 193.5l8 -12.5l0.5 -1.5v-1.5M834 179.5h1.5l7 -10l1 -2.5l1 -1l8 -12.5M834 176.5h1.5v1.5h-1.5M840.5 172h19.5M892.5 90.5h19.5l-52 81.5l1 1.5l2 -1.5l52 -81.5h18.5M863 172h18.5M880 174.5l1.5 -1M882 173.5l-0.5 -1.5l52 -81.5l1.5 -1M922.5 111.5l39 60.5l-38.5 -60.5M932.5 96l49 76M934 93.5l50 78.5M936 90.5h14.5l52 81.5M1175.5 191.5v2l8 -12.5l0.5 -1.5h-1.5M1182.5 178h1.5v-1.5h-1.5M1184 178v1.5l8 -12.5M1187 174.5h20M1188.5 172h20M1209.5 174.5h18.5M1211 172h18.5M1309.5 172l-38.5 -60.5l39 60.5M1281 96l48.5 76M1284.5 90.5h14.5l52 81.5l1.5 1.5M1332.5 172h18.5M1462.5 195.5v-1.5v2l8 -12.5l1 -1.5l8 -12.5M1478.5 168.5h1.5l8 -12.5l1 -1.5v-1.5h-2"/>
<path pathLength="1" style="--i:8" d="M148 164v2M165 137v1.5h-1.5h2l-1 1.5l-1.5 2l-6.5 10.5h-1.5M522.5 123v2l-1 1l-8 12.5l-2 3.5l-9 13.5l-6.5 10.5v-2M844.5 164v2M851.5 152.5h1.5l8 -12.5l1 -1.5l8 -12.5M1200 152.5h1.5l-1 1l-8 12.5v-2M1201.5 152.5l6.5 -10.5l1.5 -2l0.5 -1.5l8 -12.5l1 -1M1482 165h20M1535.5 81.5h20l-52 81.5h-20M1488.5 153v1.5h-1.5h2l7.5 -12l1 -1.5v-1.5v-1.5v-1.5M1489 151.5v1.5M1497.5 141l8 -12.5M1504 164l2 -1l52 -81.5h18.5l-52 81.5h-18.5M1523 165l2 -1"/>
<path pathLength="1" style="--i:9" d="M163.5 137h2M165.5 135.5v1.5v1.5l6.5 -10l2 -3.5l8 -12.5l0.5 -1.5l6.5 -10l1.5 -2.5l1 -1h-1.5M174 123v2M513.5 135.5v1.5v1.5h-1.5M512 137h1.5M522.5 125l7.5 -12.5l1 -1.5l8 -12.5M860.5 137h1.5v1.5h-1.5M862 135.5v1.5M870.5 123v2l6.5 -10.5l1.5 -2l1 -1.5l7.5 -12.5l1 -1v-2M1208.5 138.5h1.5v-1.5h-1.5M1210 135.5v1.5M1219 123v2l6.5 -10.5l1.5 -2l0.5 -1.5l8 -12.5l1 -1h-2h1.5v-1.5M1506 127.5l8 -12.5l1 -1.5l8 -12.5M1513.5 113.5h1.5v-1.5h-1.5"/>
<path pathLength="1" style="--i:10" d="M191.5 95.5v2l9.5 -15M196 90.5h19.5M220 88.5l1.5 -2.5M238 88.5l1 1M544 90.5h20M545.5 88.5h20l2 -3.5l1.5 0.5M568 88.5l1.5 -2.5l-2 -1M585 90.5l2 -1M886.5 96h1.5v1.5l9.5 -15M886.5 97.5h1.5M912 90.5l2 -1M914.5 89.5l2 -1M1236.5 95.5v2l9.5 -15h4.5v3M1242 88.5h20l2 -3.5l2 1l-1.5 2.5h18.5l2.5 -3.5l1.5 1M1260.5 90.5l2 -1M1263 89.5l1.5 -1M1281.5 90.5l2 -1M1523.5 98.5v1.5l6.5 -10.5l1.5 -2l1 -1M1532.5 85v1.5l7.5 -12.5l1 -1.5l8 -12.5"/>
<path pathLength="1" style="--i:11" d="M191 37v44M198.5 37v41M539 37v44M546.5 37v41M887.5 37v44M895 37v41M1235.5 32.5v48.5M1236 32.5v48.5M1243 35v43M1293.5 82l2 -1M1539.5 72.5h1.5M1549.5 57.5v1.5l8 -12.5l1 -1l8 -12.5l0.5 -1.5l8 -12.5l1 -1h-1.5M1555.5 81.5l1.5 -1.5M1558 81.5l-0.5 -1.5l2 -1h18.5M1576.5 81.5l2 -1.5"/>
<path pathLength="1" style="--i:12" d="M29 31.5h174M189 37h40h22M189 32h5.5h2v2.5h-2h-5.5h40h22M223 31.5h358.5M537 32v2.5v2.5h40h22.5M537 34.5h40h22.5M559 31.5h119.5M587.5 31.5h165M772.5 31.5h340M885.5 37h40h22M885.5 34.5h40h22M1094 31.5h131M1118.5 31.5h24.5M1163 31.5h251.5M1245.5 29h3.5l1.5 1.5v6.5h-5h-2.5M1250.5 37h23M1272.5 36v-7l2.5 2.5h20v4.5M1272.5 29h24.5l-2 2.5M1275 31.5v4.5M1297 29v7"/>
<path pathLength="1" style="--i:13" d="M1574.5 16.5h1.5v1.5"/>
<path class="hatch" stroke-width="1.5" opacity="0.4" d="M715 349.5h4M1067 346.5v3M1411.5 349.5h4M372.5 349h7.5M395.5 349h2h2.5M416.5 349h2h2.5M720.5 349h8M743.5 349h2h2.5M1056.5 345.5h12.5v3.5h7.5M1067.5 346.5v2.5M1068.5 346.5v2.5M1092 349h2h2.5M1113 349h2h2.5M377 348.5h3h-7.5M720.5 348.5h8h-3h-5M1073.5 348.5h3h-7.5M365 346.5h2M395.5 346.5h2h2.5M416.5 346.5h2h2.5M713 346.5h2M743.5 346.5h2h2.5M1061.5 346.5h2M1092 346.5h2h2.5M1113 346.5h2h2.5M1410 346.5h1.5h2M361 346h10M709.5 346h10M1058 346h9.5M1406 346h10M1411.5 346h2M360 345.5h12.5h-9.5M708.5 345.5h12h-9M1405 345.5h12.5h2h-3M1409 345.5h6.5M1419.5 345.5h5M361 345h2M1057.5 345h2M1407.5 345h1.5h6.5h2h2M33 330.5h1.5v-2h-3v15.5M380 344v-15.5h1.5h1.5M381.5 342h1.5v2h-1.5M731.5 328.5h-2h-1.5v15.5M729.5 342h2v2M1076.5 344v-15.5h1.5h1.5M1078 342h1.5v2h-1.5M33 343.5h1.5M729.5 343.5h1.5M1078 343.5h1.5M26 339.5v3.5M26.5 333.5v6v3.5M29.5 339.5v3.5M33 342.5h1.5M374.5 342.5h5M381.5 342.5h1.5M729.5 342.5h2M1071 342.5h5M1078 342.5h1.5M33 342h1.5M374.5 342h5M1071 342h5M33 341h1.5M381.5 336.5h1.5v1.5v1.5v1.5h-1.5M729.5 336.5h2v1.5v1.5v1.5h-2M1078 341h1.5v-1.5M33 340.5h1.5M381.5 340.5h1.5M729.5 340.5h2M1078 340.5h1.5M33 339.5h1.5M381.5 339.5h1.5M729.5 339.5h2M1078 336.5h1.5v1.5v1.5h-1.5M33 339h1.5M381.5 339h1.5M729.5 339h2M1078 339h1.5M33 338h1.5M381.5 338h1.5M729.5 338h2M1078 338h1.5M33 337.5h1.5M381.5 337.5h1.5M729.5 337.5h2M1078 337.5h1.5M33 333.5h1.5v1.5v1.5h-1.5M33 336h1.5M381.5 336h1.5M729.5 336h2M1078 336h1.5M33 335h1.5M383 333.5v1.5h-1.5M729.5 333.5h2v1.5h-2M1078 332h1.5v1.5v1.5h-1.5M33 334.5h1.5M381.5 334.5h1.5M729.5 334.5h2M1078 334.5h1.5M33 332h1.5v1.5M381.5 333.5h1.5v-1.5v-1.5h-1.5M731.5 332v1.5M1078 333.5h1.5M33 333h1.5M381.5 333h1.5M729.5 333h2M1078 333h1.5M34.5 330.5v1.5M381.5 332h1.5M729.5 329h2v1.5v1.5h-2M1079.5 330.5v1.5M33 331.5h1.5M381.5 331.5h1.5M729.5 331.5h2M1078 331.5h1.5M381.5 329h1.5v1.5M729.5 330.5h2M1078 329h1.5v1.5h-1.5M33 330h1.5M40.5 330v-15h3M381.5 330h1.5M391.5 315h-1.5h-1.5v15M729.5 330h2M740 315h-1.5h-1.5v15M1078 330h1.5M33 329h1.5M43.5 321v1.5v1.5v1.5v1.5v1.5M391.5 324v1.5v1.5v1.5M740 327v1.5M1086.5 327h2v1.5M42 327h1.5M390 327h1.5M738.5 324h1.5v1.5v1.5h-1.5M1088.5 325.5v1.5M42 325.5h1.5M390 325.5h1.5M738.5 325.5h1.5M1086.5 321h2v1.5v1.5v1.5h-2M42 324h1.5M390 321h1.5v1.5v1.5h-1.5M738.5 322.5h1.5v1.5M1086.5 324h2M42 322.5h1.5M390 322.5h1.5M740 321v1.5M1086.5 322.5h2M42 319.5h1.5v1.5h-1.5M390 319.5h1.5v1.5M738.5 321h1.5v-1.5h-1.5M1086.5 319.5h2v1.5M42 318h1.5M390 318h1.5M738.5 318h1.5M1086.5 318h2M42 317h1.5M390 317h1.5M738.5 317h1.5M1086.5 317h2M42 316.5h1.5M49 301.5v15M50.5 316.5h1.5M390 316.5h1.5M399 316.5h1.5M738.5 316.5h1.5M745.5 301.5v15M747 316.5h1.5M1086.5 316.5h2M1095.5 316.5h1.5M50.5 316h1.5M747 316h1.5M42 315.5h1.5M390 315.5h1.5M738.5 315.5h1.5M1086.5 315.5h2M50.5 315h1.5M399 315h1.5M747 315h1.5M1085 315h1.5h2M1095.5 315h1.5M50.5 314.5h1.5M399 314.5h1.5M747 314.5h1.5M1095.5 314.5h1.5M50.5 313.5h1.5M399 313.5h1.5M747 313.5h1.5M1095.5 313.5h1.5M50.5 313h1.5M399 313h1.5M747 313h1.5M1095.5 313h1.5M50.5 312h1.5M399 309h1.5v1.5v1.5h-1.5M747 310.5h1.5v1.5h-1.5M1095.5 310.5h1.5v1.5h-1.5M50.5 311.5h1.5M399 311.5h1.5M747 311.5h1.5M1095.5 311.5h1.5M52 309v1.5h-1.5M399 310.5h1.5M747 309h1.5v1.5M1095.5 309h1.5v1.5M50.5 310h1.5M399 310h1.5M747 310h1.5M1095.5 310h1.5M50.5 307.5h1.5v1.5h-1.5M50.5 308.5h1.5M399 308.5h1.5M747 308.5h1.5M1095.5 308.5h1.5M52 306v1.5M399 306h1.5v1.5h-1.5M748.5 306v1.5h-1.5M1095.5 307.5h1.5v-1.5h-1.5M50.5 304.5h1.5v1.5h-1.5M399 304.5h1.5v1.5M747 306h1.5v-1.5h-1.5M1095.5 304.5h1.5v1.5M1411.5 305v-4.5h4v4.5M57.5 287.5v15.5M59.5 303h1.5v-2M407.5 303h1.5v-2v1.5h-1.5M754.5 287.5v15.5M756 303h1.5v-2v-1.5h-1.5M1104 303h1.5v-2v-1.5h-1.5M60.5 301v1.5M757 301v1.5M1104 301h1.5v1.5h-1.5M59.5 299.5h1.5v1.5h-1.5M407.5 299.5h1.5v1.5h-1.5M756 301h1.5M1410 298v2.5h7.5M1410.5 300h6M1411.5 300h4M1411.5 295v4.5h4v-4.5M59.5 298.5h1.5M407.5 298.5h1.5v-1.5M756 298.5h1.5v-1.5h-1.5M1104 298.5h1.5v-1.5h-1.5M59.5 298h1.5M407.5 298h1.5M756 298h1.5M1104 298h1.5M59.5 294h1.5v1.5v1.5h-1.5M407.5 297h1.5v-1.5h-1.5M756 295.5h1.5v1.5M1104 295.5h1.5v1.5M59.5 296.5h1.5M407.5 296.5h1.5M756 296.5h1.5M1104 296.5h1.5M59.5 295.5h1.5M59.5 295h1.5M407.5 295h1.5M756 295h1.5M1104 295h1.5M59.5 292.5h1.5v1.5M407.5 294h1.5v-1.5M756 294h1.5v-1.5M1104 294h1.5v-1.5v-1.5M59.5 293.5h1.5M407.5 293.5h1.5M756 293.5h1.5M1104 293.5h1.5M61 291v1.5M407.5 291h1.5v1.5h-1.5M757.5 289.5v1.5v1.5h-1.5M1104 292.5h1.5M59.5 292h1.5M407.5 292h1.5M756 292h1.5M1104 292h1.5M59.5 289.5h1.5v1.5h-1.5M409 289.5v1.5M756 291h1.5M1104 291h1.5v-1.5v-1.5h-1.5M59.5 290.5h1.5M407.5 290.5h1.5M756 290.5h1.5M1104 290.5h1.5M61 287.5v2M407.5 288h1.5v1.5h-1.5M756 288h1.5v1.5h-1.5M1104 289.5h1.5M59.5 289h1.5M69.5 274h-3v15M407.5 289h1.5M756 289h1.5M763 289v-15h1.5h1.5v1.5v1.5h-1.5M1104 289h1.5M59.5 288h1.5M69.5 284.5v1.5v1.5h-1.5M416.5 286h1.5v1.5h-1.5M764.5 287.5h1.5v-1.5v-1.5v-1.5M1113 284.5h1.5v1.5v1.5h-1.5M68 286h1.5M418 284.5v1.5M764.5 286h1.5M1113 286h1.5M68 283h1.5v1.5h-1.5M416.5 284.5h1.5v-1.5v-1.5h-1.5M764.5 284.5h1.5M1113 283h1.5v1.5M69.5 281.5v1.5M416.5 283h1.5M764.5 281.5h1.5v1.5h-1.5M1114.5 281.5v1.5M68 278.5h1.5v1.5v1.5h-1.5M418 278.5v1.5v1.5M766 280v1.5M1113 280h1.5v1.5h-1.5M68 280h1.5M416.5 280h1.5M764.5 278.5h1.5v1.5h-1.5M1114.5 278.5v1.5M69.5 277v1.5M416.5 277h1.5v1.5h-1.5M766 277v1.5M1113 278.5h1.5v-1.5h-1.5M68 274h1.5v1.5v1.5h-1.5M418 275.5v1.5M1114.5 275.5v1.5M68 275.5h1.5M76.5 260.5h1.5h-3v15M76.5 275.5h1.5M416.5 274h1.5v1.5h-1.5M425 275.5h1.5M764.5 275.5h1.5M771.5 275.5v-15h1.5h2M773 275.5h2M1111.5 274h1.5h1.5v1.5h-1.5M1120 275.5v-15h1.5h1.5M1121.5 275.5h1.5M76.5 275h1.5M425 275h1.5M773 275h1.5M1121.5 275h1.5M76.5 274h1.5M425 274h1.5M773 274h2M1121.5 274h1.5M76.5 273.5h1.5M425 273.5h1.5M773 273.5h2M1121.5 273.5h1.5M76.5 272.5h1.5M426.5 269.5v1.5v1.5h-1.5M773 272.5h2v-1.5M1121.5 271h1.5v1.5h-1.5M76.5 272h1.5M425 272h1.5M773 272h2M1121.5 272h1.5M76.5 271h1.5M425 271h1.5M773 268h2v1.5v1.5h-2M1121.5 268h1.5v1.5v1.5M1419 267v4M1419.5 264v3v4M1421.5 267v4M76.5 270.5h1.5M425 270.5h1.5M773 270.5h2M1121.5 270.5h1.5M78 268v1.5h-1.5M425 269.5h1.5v-1.5h-1.5M773 269.5h2M1121.5 269.5h1.5M76.5 269h1.5M425 269h1.5M773 269h2M1121.5 269h1.5M76.5 268h1.5v-1.5v-1.5v-1.5h-1.5M76.5 267.5h1.5M425 267.5h1.5M773 267.5h2M1121.5 267.5h1.5M76.5 266.5h1.5M426.5 265v1.5h-1.5M773 266.5h2v-1.5M1123 265v1.5h-1.5M76.5 266h1.5M425 266h1.5M773 266h2M1121.5 266h1.5M76.5 265h1.5M425 263.5h1.5v1.5h-1.5M773 265h2v-1.5h-2M1121.5 263.5h1.5v1.5h-1.5M76.5 264.5h1.5M425 264.5h1.5M773 264.5h2M1121.5 264.5h1.5M76.5 262h1.5M425 262h1.5M773 262h2M1121.5 262h1.5M84 246.5v15M85.5 261.5h1.5v-1.5v-1.5v-1.5v-1.5M86.5 260v1.5M432 246.5v15M433.5 260h1.5v1.5h-1.5M780.5 246.5v15M782 261.5h1.5v-1.5M1128.5 246.5v15M1132 260v1.5h-2h1.5v-1.5M423.5 260.5h1.5h1.5M85.5 260h1.5M435 258.5v1.5M782 260h1.5v-1.5h-1.5M1130 258.5h2v1.5h-2M85.5 258.5h1.5M433.5 257h1.5v1.5h-1.5M783.5 257v1.5M1132 257v1.5M85.5 257h1.5M435 255.5v1.5M782 254h1.5v1.5v1.5h-1.5M1130 257h2v-1.5M85.5 255.5h1.5v-1.5h-1.5M433.5 254h1.5v1.5h-1.5M782 255.5h1.5M1130 254h2v1.5h-2M1405 255.5h12.5M1408 255.5h7.5M1408 255h7.5M85.5 253h1.5v-1.5M433.5 253h1.5v-1.5v-1.5v-1.5h-1.5M782 248.5h1.5v1.5v1.5v1.5h-1.5M1130 251.5h2v1.5h-2M85.5 252.5h1.5M433.5 252.5h1.5M782 252.5h1.5M1130 252.5h2M1405 252.5h7M85.5 248.5h1.5v1.5v1.5h-1.5M433.5 251.5h1.5M782 251.5h1.5M1132 250v1.5M85.5 251h1.5M433.5 251h1.5M782 251h1.5M1130 251h2M1424.5 250.5v-15h2h1.5M85.5 250h1.5M433.5 250h1.5M782 250h1.5M1130 248.5h2v1.5h-2M85.5 249.5h1.5M433.5 249.5h1.5M782 249.5h1.5M1130 249.5h2M85.5 248h1.5M92.5 248v-15h3v1.5v1.5v1.5h-1.5M94 246h1.5v2v-1.5h-1.5M433.5 248h1.5M441 248v-15h1.5h1.5v1.5h-1.5M442.5 246h1.5v2M443.5 246.5v1.5M782 248h1.5M790.5 246.5h1.5v1.5v-2h-1.5M1130 248h2M1137.5 248v-15h1.5h1.5v1.5h-1.5M1139 246.5h1.5v1.5v-2h-1.5M1426.5 247.5h1.5v-1.5M442.5 246.5h1.5M1426.5 246h1.5v-1.5h-1.5M95.5 240.5v1.5v1.5v1.5h-1.5M442.5 245h1.5v-1.5v-1.5h-1.5M790.5 245h1.5v-1.5M1139 243.5h1.5v1.5h-1.5M1426.5 243h1.5v1.5M94 243.5h1.5M442.5 243.5h1.5M790.5 237.5h1.5v1.5v1.5v1.5v1.5h-1.5M1140.5 242v1.5M1428 241.5v1.5M94 242h1.5M444 237.5v1.5v1.5v1.5M790.5 242h1.5M1139 242h1.5v-1.5v-1.5h-1.5M1426.5 241.5h1.5v-1.5h-1.5M94 239h1.5v1.5h-1.5M442.5 240.5h1.5M790.5 240.5h1.5M1139 240.5h1.5M95.5 237.5v1.5M442.5 239h1.5M790.5 239h1.5M1140.5 237.5v1.5M1426.5 238.5h1.5M442.5 237.5h1.5v-1.5h-1.5M792 236v1.5M1139 236h1.5v1.5h-1.5M1426.5 237h1.5M1433.5 237v-15h1.5h1.5M1435 237h1.5M1435 236.5h1.5M94 236h1.5M444 234.5v1.5M790.5 234.5h1.5v1.5h-1.5M1140.5 234.5v1.5M1435 235.5h1.5M1435 235h1.5M94 234.5h1.5M452.5 219.5h-1.5h-1.5v15M451 234.5h1.5M789 233h1.5h1.5v1.5M1149 219.5h-1.5h-1.5v15M1147.5 234.5h1.5M451 234h1.5M1147.5 234h1.5M1435 234h1.5M1435 233.5h1.5M94 233h1.5M451 233h1.5M1147.5 233h1.5M451 232.5h1.5M1147.5 232.5h1.5M1435 232.5h1.5v-1.5M1435 232h1.5M103 231.5h1.5M451 230h1.5v1.5h-1.5M799.5 231.5h1.5v-1.5h-1.5M1147.5 231.5h1.5v-1.5M103 231h1.5M451 231h1.5M799.5 231h1.5M1147.5 231h1.5M1436.5 228v1.5v1.5h-1.5M1435 230.5h1.5M103 230h1.5M452.5 228.5v1.5M799.5 228.5h1.5v1.5M1147.5 227h1.5v1.5v1.5h-1.5M103 229.5h1.5M451 229.5h1.5M799.5 229.5h1.5M1147.5 229.5h1.5M1435 229.5h1.5M1435 229h1.5M103 228.5h1.5M451 227h1.5v1.5h-1.5M799.5 227h1.5v1.5M1147.5 228.5h1.5M103 228h1.5M451 228h1.5M799.5 228h1.5M1147.5 228h1.5M1435 228h1.5v-1.5M1435 227.5h1.5M103 227h1.5M103 226.5h1.5M451 226.5h1.5M799.5 226.5h1.5M1147.5 226.5h1.5M1435 225h1.5v1.5h-1.5M1435 226h1.5M103 225.5h1.5M451 224h1.5v1.5h-1.5M799.5 224h1.5v1.5h-1.5M1147.5 225.5h1.5v-1.5h-1.5M103 225h1.5M451 225h1.5M799.5 225h1.5M1147.5 225h1.5M1435 223.5h1.5v1.5M1435 224.5h1.5M103 224h1.5M103 223.5h1.5M451 223.5h1.5M799.5 223.5h1.5M1147.5 223.5h1.5M1435 223h1.5M1442 223v-15h1.5h1.5M1443.5 220h1.5v1.5v1.5h-1.5M103 222.5h1.5M451 222.5h1.5M799.5 222.5h1.5M1147.5 222.5h1.5M103 222h1.5M451 222h1.5M799.5 222h1.5M1147.5 222h1.5M1443.5 221.5h1.5M103 221h1.5M451 221h1.5M799.5 221h1.5M1147.5 221h1.5M103 220.5h1.5M111.5 220.5h1.5M451 220.5h1.5M461.5 205.5h-1.5h-2v15M460 216h1.5v1.5v1.5v1.5h-1.5M461 219v1.5M799.5 220.5h1.5M808 220.5h1.5M1147.5 220.5h1.5M1158 205.5h-1.5h-1.5v15M1158 217.5v1.5v1.5h-1.5M1157.5 219v1.5M1443.5 218.5h1.5v1.5M101 219.5h3.5h-1.5M799.5 219.5h1.5M111.5 219h1.5M460 219h1.5M808 219h1.5M1156.5 219h1.5M1445 217v1.5M111.5 217.5h1.5M460 217.5h1.5M808 217.5h1.5M1156.5 211.5h1.5v1.5v1.5v1.5v1.5h-1.5M1443.5 214h1.5v1.5v1.5h-1.5M113 214.5v1.5h-1.5M460 214.5h1.5v1.5M808 214.5h1.5v1.5h-1.5M1156.5 216h1.5M1443.5 215.5h1.5M111.5 213h1.5v1.5h-1.5M461.5 213v1.5M809.5 213v1.5M1156.5 214.5h1.5M1443.5 212.5h1.5v1.5M111.5 210h1.5v1.5v1.5M461.5 211.5v1.5h-1.5M808 210h1.5v1.5v1.5h-1.5M1156.5 213h1.5M111.5 211.5h1.5M460 210h1.5v1.5h-1.5M808 211.5h1.5M1156.5 210h1.5v1.5M1443.5 211.5h1.5v-1.5M1443.5 211h1.5M1443.5 208.5h1.5v1.5h-1.5M1443.5 209.5h1.5M1452.5 200.5h1.5v-1.5v-1.5v-1.5v-1.5h-1.5h-1.5v15M111.5 209h1.5v-1.5M460 207.5h1.5v1.5h-1.5M808 207.5h1.5v1.5h-1.5M1156.5 209h1.5v-1.5h-1.5M111.5 208.5h1.5M460 208.5h1.5M808 208.5h1.5M1156.5 208.5h1.5M1452.5 207.5h1.5M120 207h2M460 207h1.5M467 207v-15h1.5h1.5v1.5v1.5v1.5h-1.5M468.5 205h1.5v2h-1.5M808 207h1.5M817 205h1.5v2h-1.5M1156.5 207h1.5M1163.5 207v-15h1.5h1.5v1.5M1165 205h1.5v2h-1.5M120 206.5h1.5M468.5 206.5h1.5M1165 206.5h1.5M1454 205v1.5h-1.5M460 206h1.5M808 206h1.5M1156.5 206h1.5M1452.5 206h1.5M120 205.5h2M468.5 205.5h1.5M808 205.5h1.5M817 205.5h1.5M1165 205.5h1.5M120 205h2M1454 203.5v1.5h-1.5M1452.5 204.5h1.5M120 204h2M470 202.5v1.5h-1.5M818.5 202.5v1.5h-1.5M1165 201h1.5v1.5v1.5h-1.5M120 203.5h2M468.5 203.5h1.5M817 203.5h1.5M1165 203.5h1.5M1452.5 202h1.5v1.5h-1.5M1452.5 203h1.5M120 202.5h2M468.5 201h1.5v1.5h-1.5M817 195h1.5v1.5v1.5v1.5v1.5v1.5h-1.5M1165 202.5h1.5M120 202h2M468.5 202h1.5M817 202h1.5M1165 202h1.5M1454 200.5v1.5M120 201h2M470 198v1.5v1.5M817 201h1.5M1165 199.5h1.5v1.5M120 196.5h2v1.5v1.5h-2M468.5 199.5h1.5M817 199.5h1.5M1166.5 198v1.5M1452.5 199h1.5M120 198h2M468.5 198h1.5v-1.5M817 198h1.5M1165 198h1.5v-1.5h-1.5M1452.5 197.5h1.5M122 195v1.5M817 196.5h1.5M1166.5 195v1.5M1452.5 196h1.5M1462.5 180.5h-1.5h-1.5v15.5M1461 196h1.5M1461 195.5h1.5M120 195h2v-1.5h-2M468.5 195h1.5M818.5 193.5v1.5M1165 193.5h1.5v1.5h-1.5M1461 194h1.5M120 192h2v1.5M468.5 193.5h1.5M475.5 193.5v-15.5h1.5h2M815 192h2h1.5v1.5h-1.5M824 193.5v-15.5h1.5h1.5M1461 193h1.5M1461 192.5h1.5M118.5 192h3.5M129 191.5h1.5M477 191.5h2M825.5 191.5h1.5M1174 191.5h1.5M1461 191.5h1.5v-1.5h-1.5M1461 191h1.5M129 190.5h1.5M477 187.5h2v1.5v1.5h-2M825.5 190.5h1.5v-1.5h-1.5M1174 190.5h1.5M129 190h1.5M477 190h2M825.5 190h1.5M1174 190h1.5M1462.5 188.5v1.5M1461 189.5h1.5M129 189h1.5M477 189h2M827 187.5v1.5M1174 189h1.5M129 188.5h1.5M477 188.5h2M825.5 188.5h1.5M1174 188.5h1.5M1461 187h1.5v1.5h-1.5M1461 188h1.5M129 187.5h1.5M477 186h2v1.5M825.5 186h1.5v1.5h-1.5M1174 187.5h1.5M129 187h1.5M477 187h2M825.5 187h1.5M1174 187h1.5M1462.5 185.5v1.5M1461 186.5h1.5M129 186h1.5M1174 186h1.5M129 185.5h1.5M477 185.5h2M825.5 185.5h1.5M1174 185.5h1.5M1461 184h1.5v1.5h-1.5M1461 185h1.5M129 184.5h1.5v-1.5h-1.5M479 181.5v1.5v1.5h-2M825.5 180h1.5v1.5v1.5v1.5h-1.5M1174 180h1.5v1.5v1.5v1.5h-1.5M129 184h1.5M477 184h2M825.5 184h1.5M1174 184h1.5M1461 183.5h1.5M129 181.5h1.5v1.5M477 183h2M825.5 183h1.5M1174 183h1.5M129 182.5h1.5M477 182.5h2M825.5 182.5h1.5M1174 182.5h1.5M1461 182.5h1.5M1461 182h1.5M1468.5 167v15M1470 182h1.5v-1.5v-1.5h-1.5M1471 180.5v1.5M130.5 180v1.5M477 181.5h2v-1.5h-2M825.5 181.5h1.5M1174 181.5h1.5M129 181h1.5M477 181h2M825.5 181h1.5M1174 181h1.5M1461 181h1.5M1470 180.5h1.5M129 180h1.5v-2h-3M477 178.5h2v1.5M825.5 178.5h1.5v1.5M1172 178h3.5v2M129 179.5h1.5M139 164.5h-3v15M477 179.5h2M487.5 164.5h-1.5h-1.5v15M825.5 179.5h1.5M832.5 179.5v-15h1.5h1.5M1174 179.5h1.5M1470 177.5h1.5v1.5M129 178.5h1.5M1174 178.5h1.5M1471.5 176v1.5M139 175v1.5M486 170.5h1.5v1.5v1.5v1.5v1.5M835.5 175v1.5M1182.5 175h1.5v1.5M1470 174.5h1.5v1.5h-1.5M137.5 175h1.5v-1.5h-1.5M486 175h1.5M834 167.5h1.5v1.5v1.5v1.5v1.5v1.5h-1.5M1184 173.5v1.5M1470 171.5h1.5v1.5v1.5M139 172v1.5M486 173.5h1.5M834 173.5h1.5M1182.5 172h1.5v1.5h-1.5M1470 173h1.5M137.5 169h1.5v1.5v1.5h-1.5M486 172h1.5M834 172h1.5M1184 170.5v1.5M1471.5 170v1.5M137.5 170.5h1.5M487.5 169v1.5M834 170.5h1.5M1182.5 169h1.5v1.5h-1.5M1470 168.5h1.5v1.5h-1.5M137.5 167.5h1.5v1.5M486 169h1.5v-1.5h-1.5M834 169h1.5M1182.5 167.5h1.5v1.5M1478.5 167h1.5v1.5M1478.5 166.5h1.5M137.5 166h1.5M145 151v15M146.5 166h1.5M486 166h1.5M494.5 166h1.5M834 166h1.5M841.5 151v15M843 166h1.5M1182.5 166h1.5M1191 166h1.5M494.5 165.5h1.5M1191 165.5h1.5M1478.5 165.5h1.5v-1.5h-1.5M137.5 165h1.5M486 165h1.5M834 165h1.5M1182.5 165h1.5M1478.5 165h1.5M146.5 164.5h1.5M494.5 164.5h1.5M843 164.5h1.5M1181 164.5h3M1191 164.5h1.5M146.5 164h1.5M494.5 164h1.5M843 164h1.5M1191 164h1.5M1480 162.5v1.5M1478.5 163.5h1.5M146.5 163h1.5M494.5 163h1.5M843 163h1.5M1191 163h1.5M146.5 162.5h1.5M494.5 162.5h1.5M843 162.5h1.5M1191 162.5h1.5M1478.5 159.5h1.5v1.5v1.5h-1.5M1478.5 162h1.5M146.5 161.5h1.5M494.5 161.5h1.5M843 161.5h1.5M1191 161.5h1.5M146.5 161h1.5M494.5 161h1.5M843 161h1.5M1191 161h1.5M1478.5 161h1.5M1478.5 160.5h1.5M146.5 158.5h1.5v1.5h-1.5M494.5 160h1.5v-1.5h-1.5M843 158.5h1.5v1.5h-1.5M1191 155.5h1.5v1.5v1.5v1.5h-1.5M146.5 159.5h1.5M494.5 159.5h1.5M843 159.5h1.5M1191 159.5h1.5M1480 158v1.5M1191 158.5h1.5M146.5 158h1.5M494.5 158h1.5M843 158h1.5M1191 158h1.5M1477 153.5h1.5h1.5v1.5v1.5v1.5h-1.5M146.5 157h1.5v-1.5v-1.5v-1.5h-1.5M494.5 157h1.5v-1.5M843 157h1.5v-1.5h-1.5M1191 157h1.5M1478.5 156.5h1.5M146.5 155.5h1.5M494.5 152.5h1.5v1.5v1.5h-1.5M844.5 154v1.5M1191 152.5h1.5v1.5v1.5M1478.5 155h1.5M146.5 154h1.5M494.5 154h1.5M843 152.5h1.5v1.5h-1.5M1191 154h1.5M156.5 137h-1.5h-1.5v15.5M155 150.5h1.5v2M505 150.5v2M850 152.5v-15.5h1.5h1.5M853 152.5v-2v1.5M1200 147.5h1.5v1.5v1.5v2M155 147.5h1.5v1.5v1.5v1.5M504.5 150.5v1.5M1201 150.5v1.5M1487 150h2v1.5h-2M503.5 150.5h1.5v-1.5M853 149v1.5h-1.5M1200 150.5h1.5M155 149h1.5M503.5 149h1.5v-1.5h-1.5M851.5 147.5h1.5v1.5h-1.5M1200 149h1.5M1487 147.5h2v1.5h-2M1487 148.5h2M1489 146v1.5M1487 147h2M155 145h1.5v1.5h-1.5M503.5 145h1.5v1.5h-1.5M851.5 146.5h1.5v-1.5h-1.5M1200 145h1.5v1.5h-1.5M155 146h1.5M503.5 146h1.5M851.5 146h1.5M1200 146h1.5M1487 144.5h2v1.5h-2M1487 145.5h2M1201.5 143.5v1.5M155 144.5h1.5M503.5 144.5h1.5M851.5 144.5h1.5M1200 144.5h1.5M1487 144h2M155 142h1.5v1.5h-1.5M503.5 143.5h1.5v-1.5v-1.5h-1.5M851.5 143.5h1.5v-1.5v-1.5v-1.5M1200 140.5h1.5v1.5v1.5h-1.5M155 143h1.5M503.5 143h1.5M851.5 143h1.5M1200 143h1.5M1487 143h2M1487 142.5h2M156.5 140.5v1.5M503.5 142h1.5M851.5 142h1.5M1200 142h1.5M155 141.5h1.5M503.5 141.5h1.5M851.5 141.5h1.5M1200 141.5h1.5M1487 141.5h2M1487 141h2M1496 141h1.5M155 137.5h1.5v1.5v1.5h-1.5M505 139v1.5M851.5 140.5h1.5M1198.5 137h3v2v1.5M155 140h1.5M503.5 140h1.5M851.5 140h1.5M1200 140h1.5M1487 140h2M1487 139.5h2M1496 139.5h1.5M155 139h1.5M503.5 137.5h1.5v1.5h-1.5M851.5 137.5h1.5v1.5h-1.5M1200 139h1.5M155 138.5h1.5M162 138.5v-15h1.5h2M503.5 138.5h1.5M851.5 138.5h1.5M862 123.5h-1.5h-1.5v15M1200 138.5h1.5M1496 138h1.5M1200 137.5h1.5M503.5 137h1.5M1496 136.5h1.5v-1.5M163.5 128h2v1.5v1.5v1.5v1.5v1.5h-2M512 132.5h1.5v1.5v1.5h-1.5M862 134v1.5h-1.5M1208.5 135.5h1.5v-1.5h-1.5M1496 132h1.5v1.5v1.5h-1.5M163.5 134h2M512 134h1.5M862 132.5v1.5h-1.5M1210 132.5v1.5M1496 133.5h1.5M163.5 132.5h2M513.5 131v1.5M860.5 129.5h1.5v1.5v1.5h-1.5M1208.5 131h1.5v1.5h-1.5M1497.5 130.5v1.5M163.5 131h2M513.5 129.5v1.5h-1.5M860.5 131h1.5M1208.5 128h1.5v1.5v1.5M1496 129h1.5v1.5h-1.5M163.5 129.5h2M512 129.5h1.5v-1.5h-1.5M860.5 128h1.5v1.5M1208.5 129.5h1.5M1497.5 127.5v1.5M1504.5 126h1.5v1.5h-1.5M1504.5 127h1.5M163.5 126.5h2M860.5 126.5h1.5M1208.5 126.5h1.5M1504.5 125.5h1.5M163.5 125h2M171 110v15M172.5 125h1.5M520.5 125h2M860.5 125h1.5M867.5 110v15M869 125h1.5M1208.5 125h1.5M1216 110v15M1217.5 125h1.5M172.5 124.5h1.5M520.5 124.5h1.5M869 124.5h1.5M1506 123v1.5h-1.5M1504.5 124h1.5M172.5 123.5h1.5M520.5 123.5h2M869 123.5h1.5M1207 123.5h3h-1.5M1217.5 123.5h1.5M172.5 123h1.5M520.5 123h2M869 123h1.5M1217.5 123h1.5M1506 118.5v1.5v1.5v1.5h-1.5M1504.5 122.5h1.5M172.5 122h1.5M520.5 122h2M869 122h1.5M1217.5 122h1.5M172.5 121.5h1.5M520.5 121.5h2M869 121.5h1.5M1217.5 121.5h1.5M1504.5 121.5h1.5M1504.5 121h1.5M172.5 117.5h1.5v1.5v1.5h-1.5M520.5 117.5h2v1.5v1.5h-2M869 117.5h1.5v1.5v1.5h-1.5M1217.5 120.5h1.5M172.5 120h1.5M520.5 120h2M869 120h1.5M1217.5 120h1.5M1504.5 120h1.5M1504.5 119.5h1.5M172.5 119h1.5M520.5 119h2M869 119h1.5M1217.5 119h1.5v-1.5h-1.5M172.5 118.5h1.5M520.5 118.5h2M869 118.5h1.5M1217.5 118.5h1.5M1504.5 112.5h1.5v1.5v1.5v1.5v1.5h-1.5M1504.5 118h1.5M1217.5 114.5h1.5v1.5v1.5M172.5 117h1.5M520.5 117h2M869 117h1.5M1217.5 117h1.5M1504.5 117h1.5M1504.5 116.5h1.5M174 111.5v1.5v1.5v1.5h-1.5M522.5 111.5v1.5v1.5v1.5h-2M869 113h1.5v1.5v1.5h-1.5M1217.5 116h1.5M172.5 115.5h1.5M520.5 115.5h2M869 115.5h1.5M1217.5 115.5h1.5M1504.5 115.5h1.5M1504.5 115h1.5M172.5 114.5h1.5M520.5 114.5h2M869 114.5h1.5M1219 113v1.5M172.5 114h1.5M520.5 114h2M869 114h1.5M1217.5 114h1.5M1504.5 114h1.5M1512 113.5v-15h1.5h1.5M172.5 113h1.5M520.5 113h2M870.5 111.5v1.5M1219 111.5v1.5h-1.5M1515 110.5v1.5M179.5 111v-15h1.5h1.5M181 109.5h1.5v1.5h-1.5M528 111v-15h1.5h1.5M529.5 109.5h1.5v1.5h-1.5M876 111v-15h1.5h2M877.5 108h2v1.5v1.5h-2h1.5v-1.5M1226 98h1.5v-2h-3v15M1226 111h1.5v-1.5M1513.5 110.5h1.5v-1.5M181 103.5h1.5v1.5v1.5v1.5v1.5M531 108v1.5M877.5 109.5h2M1226 109.5h1.5v-1.5v-1.5v-1.5h-1.5M1513.5 106h1.5v1.5v1.5h-1.5M181 108h1.5M529.5 108h1.5v-1.5v-1.5v-1.5h-1.5M879.5 106.5v1.5M1226 108h1.5M1513.5 107.5h1.5M181 106.5h1.5M529.5 106.5h1.5M877.5 103.5h2v1.5v1.5h-2M1226 106.5h1.5M181 105h1.5M529.5 105h1.5M877.5 105h2M1226 103.5h1.5v1.5M1513.5 103.5h1.5v1.5h-1.5M1513.5 104.5h1.5M1513.5 103h1.5M181 102.5h1.5v-1.5v-1.5v-1.5h-1.5M529.5 102.5h1.5v-1.5h-1.5M877.5 102.5h2v-1.5h-2M1227.5 101v1.5h-1.5M181 102h1.5M529.5 102h1.5M877.5 102h2M1226 102h1.5M1513.5 102h1.5M1513.5 101.5h1.5M181 101h1.5M531 99.5v1.5M879.5 99.5v1.5M1226 101h1.5v-1.5h-1.5M181 100.5h1.5M529.5 100.5h1.5M877.5 100.5h2M1226 100.5h1.5M1513.5 100.5h1.5M1513.5 100h1.5M1520.5 85v15M1522 100h1.5M181 99.5h1.5M529.5 99.5h1.5v-1.5h-1.5M877.5 96.5h2v1.5v1.5h-2M1227.5 98v1.5M181 99h1.5M529.5 99h1.5M877.5 99h2M1226 99h1.5M1513.5 99h1.5M1522 98.5h1.5M181 96.5h1.5v1.5M529.5 96.5h1.5v1.5M877.5 98h2M1522 98h1.5M181 97.5h1.5M196.5 82.5h2h2.5h-9.5h-1.5h-1.5v15M529.5 97.5h1.5M536.5 97.5v-15h1.5h1.5h9.5h4.5h-7.5M877.5 97.5h2M1226 97.5h1.5M1233 82.5v15M1522 97h1.5M1226 96.5h1.5M1522 96.5h1.5M190 95.5h1.5M538 95.5h1.5M886.5 95.5h1.5M1234.5 95.5h2M1522 95.5h1.5v-1.5h-1.5M190 94.5h1.5v-1.5M539.5 93v1.5h-1.5M886.5 84h1.5v1.5v1.5v1.5v1.5v1.5v1.5v1.5h-1.5M1236.5 91.5v1.5v1.5h-2M1523.5 92.5v1.5M190 91.5h1.5v1.5h-1.5M538 90h1.5v1.5v1.5h-1.5M886.5 93h1.5M1234.5 93h2M1522 92.5h1.5v-1.5M191.5 90v1.5M538 91.5h1.5M886.5 91.5h1.5M1234.5 91.5h2v-1.5v-1.5M1522 88h1.5v1.5v1.5h-1.5M190 88.5h1.5v1.5h-1.5M539.5 88.5v1.5M886.5 90h1.5M1234.5 90h2M1522 89.5h1.5M191.5 87v1.5M538 84h1.5v1.5v1.5v1.5h-1.5M546.5 87v1.5M886.5 88.5h1.5M895 87v1.5M1234.5 85.5h2v1.5v1.5h-2M190 84h1.5v1.5v1.5h-1.5M538 87h1.5M886.5 87h1.5M1234.5 87h2M1529 71v15.5M1531 86.5h1.5M190 85.5h1.5M199 85.5h6.5M538 85.5h1.5M547 85.5h6.5M886.5 85.5h1.5M895.5 85.5h6.5M1236.5 84v1.5M1244 85.5h6.5M1531 85h1.5M1531 84.5h1.5M191.5 82.5v1.5M539.5 82.5v1.5M888 82.5v1.5M1241.5 82.5h1.5h3h-9.5v1.5h-2M222.5 80v2v1.5M570.5 80v2v1.5M919 80v2v1.5M1531 83.5h1.5M1531 83h1.5M186 82.5h2.5M201 82.5h4.5h-8M545 82.5h1.5h2.5M882.5 82.5h2.5h1.5h1.5h9.5h-2.5h-1.5M894 82.5h8h-4.5M1231 82.5h2h3.5h-2M1242.5 82.5h8M186 78.5v3.5h12.5M190 82h6.5M197.5 82h8M220 80v2M241.5 80v2M243.5 80v2M546.5 78.5v3.5h-12.5M538 82h7M546 82h7.5M546.5 79v3M568.5 80v2M895 78.5v3.5h-12.5M886.5 82h7M894 82h8M895 79v3M916.5 80v2M938 80v2M940 80v2M1230.5 82h12.5M1234.5 82h7M1242.5 82h8M1265 80v2M1267.5 80v2M1531 82h1.5M187 81.5h10M192.5 81.5h2M535.5 81.5h10M541 81.5h1.5M546 78.5v3M883.5 81.5h10M889 81.5h2M1232 81.5h10M1237.5 81.5h1.5M1531 81.5h1.5M223 79v2M244.5 79v2M247 79v2M571.5 79v2M574 79v2M919.5 79v2M941 79v2M943.5 79v2M1268 79v2M1270.5 79v2M1531 80.5h1.5v-1.5v-1.5h-1.5M1531 80h1.5M1531 79h1.5M1531 78.5h1.5M1532.5 76v1.5M1531 77h1.5M1531 73h1.5v1.5v1.5h-1.5M1531 75.5h1.5M1531 74.5h1.5M1531 74h1.5M1532.5 71.5v1.5M1531 72.5h1.5M1538 72.5v-15h1.5h1.5M1539.5 71h1.5v1.5M1541 69.5v1.5M1539.5 65h1.5v1.5v1.5v1.5h-1.5M1539.5 68h1.5M1539.5 66.5h1.5M1539.5 63.5h1.5v1.5M1539.5 62h1.5M1539.5 61h1.5M1539.5 60.5h1.5M1539.5 59.5h1.5M1539.5 59h1.5M1546.5 59v-15h1.5h1.5M1548 59h1.5M1548 58.5h1.5M1539.5 58h1.5M1548 57.5h1.5M1548 57h1.5M1548 56h1.5v-1.5h-1.5M1548 55.5h1.5M1548 53h1.5v1.5M1548 54h1.5M1549.5 51.5v1.5M1548 52.5h1.5M1549.5 50v1.5h-1.5M1548 48.5h1.5v1.5h-1.5M1548 47h1.5M1548 45.5h1.5M1558.5 30h-1.5h-1.5v15.5M1557 43.5h1.5v2h-1.5M1558 43.5v1.5M1557 42h1.5v1.5M1557 41h1.5v-1.5v-1.5v-1.5M1557 40.5h1.5M1557 39.5h1.5M1557 39h1.5M1557 38h1.5M1557 37.5h1.5M189 32v2.5v2.5M885.5 37v-2.5h5.5h2M1234 37h1.5M1245.5 29v8M186 34v-1.5v4M883 32.5v4M1231 36.5h4.5M1557 35h1.5v1.5h-1.5M1557 36h1.5M1243 31v-2v5v-1.5v2.5M1558.5 33.5v1.5M537 34.5h6h1.5M885.5 34.5v-2.5h5.5h2M1557 34.5h1.5M882.5 32.5v1.5M1236 32.5h1.5h4.5v1.5M1557 33.5h1.5v-1.5h-1.5M1557 33h1.5M537 32h6h1.5M194.5 31.5h2.5h-10h10.5M543 31.5h-8h10.5h-10M894 31.5h-10.5h10h-2.5M1231.5 31.5h10.5h-10h8.5M1241.5 28.5v3M1557 31.5h1.5M1564 31.5v-15h1.5h1.5v1.5M1565.5 31.5h1.5v-1.5v-1.5h-1.5M1231 29h12v1.5M1557 30.5h1.5M1565.5 30h1.5M186 29h12M534.5 29h11.5M883 29h11.5M1567 27v1.5M1565.5 25.5h1.5v1.5h-1.5M1567 24v1.5M1567 22.5v1.5h-1.5M1565.5 22.5h1.5v-1.5M1565.5 18h1.5v1.5v1.5h-1.5M1565.5 19.5h1.5M1574.5 15h1.5v-1.5v-1.5v-1.5h-1.5M1574.5 14.5h1.5M1574.5 13.5h1.5M1574.5 13h1.5M1574.5 12h1.5M1574.5 11.5h1.5M1576 9v1.5M1574.5 10h1.5M1574.5 7.5h1.5v1.5h-1.5M1574.5 8.5h1.5M1574.5 6h1.5M1574.5 4.5h1.5M1572.5 3h2h1.5"/>
</svg>
